# Blender v2.79 (sub 0) OBJ File: 'drawer.blend'
# www.blender.org
mtllib drawer.mtl
o sticker_Cube.001
v -0.060160 -0.001264 0.071921
v -0.060160 0.003736 0.071921
v -0.060160 -0.001264 -0.080079
v -0.060160 0.003736 -0.080079
v 0.058840 -0.001264 0.071921
v 0.058840 0.003736 0.071921
v 0.058840 -0.001264 -0.080079
v 0.058840 0.003736 -0.080079
vt -0.012740 -0.007360
vt -0.004832 0.992421
vt -0.004832 -0.000070
vt -0.012740 1.000538
vt 1.002763 0.992421
vt 1.010497 1.000538
vt 1.002763 -0.000070
vt 1.010497 -0.007360
vn -1.0000 0.0000 0.0000
vn 0.0000 0.0000 -1.0000
vn 1.0000 0.0000 0.0000
vn 0.0000 0.0000 1.0000
vn 0.0000 -1.0000 0.0000
vn 0.0000 1.0000 0.0000
usemtl None
s off
f 2/1/1 3/2/1 1/3/1
f 4/4/2 7/5/2 3/2/2
f 8/6/3 5/7/3 7/5/3
f 6/8/4 1/3/4 5/7/4
f 7/5/5 1/3/5 3/2/5
f 4/4/6 6/8/6 8/6/6
f 2/1/1 4/4/1 3/2/1
f 4/4/2 8/6/2 7/5/2
f 8/6/3 6/8/3 5/7/3
f 6/8/4 2/1/4 1/3/4
f 7/5/5 5/7/5 1/3/5
f 4/4/6 2/1/6 6/8/6
o drawer_Cube
v -0.060160 0.003736 0.071921
v -0.060160 0.003736 -0.080079
v 0.058840 0.003736 0.071921
v 0.058840 0.003736 -0.080079
v -0.256857 -0.007241 0.078747
v -0.256857 0.002759 0.078747
v -0.256857 -0.007241 -0.086253
v -0.256857 0.002759 -0.086253
v 0.073143 -0.007241 0.078747
v 0.073143 0.002759 0.078747
v 0.073143 -0.007241 -0.086253
v 0.073143 0.002759 -0.086253
v -0.060160 0.002759 0.071921
v 0.058840 0.002759 0.071921
v -0.060160 0.002759 0.012095
v -0.060160 0.002759 -0.080079
v 0.058840 0.002759 -0.080079
vt -0.000505 0.996762
vt 0.991648 -0.005700
vt 0.991648 0.996762
vt 0.990182 0.995184
vt 0.990182 -0.004282
vt 0.000994 0.995184
vt 0.000994 0.389045
vt -0.000505 -0.005700
vt 0.000994 -0.004282
vt 0.000000 0.000000
vt 0.000000 0.000000
vt 0.000000 0.000000
vt 0.000000 0.000000
vt 0.000000 0.000000
vt 0.000000 0.000000
vt 0.000000 0.000000
vt 0.000000 0.000000
vt 0.000000 0.000000
vt 0.000000 0.000000
vt 0.000000 0.000000
vt 0.000000 0.000000
vt 0.000000 0.000000
vn 0.0000 1.0000 0.0000
vn 1.0000 0.0000 0.0000
vn 0.0000 0.0000 -1.0000
vn -1.0000 0.0000 0.0000
vn 0.0000 0.0000 1.0000
vn 0.0000 -1.0000 0.0000
usemtl Material
s off
f 10/9/7 11/10/7 12/11/7
f 25/12/8 11/10/8 22/13/8
f 24/14/9 12/11/9 25/12/9
f 23/15/10 9/16/10 10/9/10
f 22/13/11 9/16/11 21/17/11
f 10/9/7 9/16/7 11/10/7
f 25/12/8 12/11/8 11/10/8
f 24/14/9 10/9/9 12/11/9
f 10/9/10 24/14/10 23/15/10
f 23/15/10 21/17/10 9/16/10
f 22/13/11 11/10/11 9/16/11
usemtl Material_NONE
f 14/18/10 15/19/10 13/20/10
f 16/21/9 19/22/9 15/19/9
f 20/23/8 17/24/8 19/22/8
f 18/25/11 13/20/11 17/24/11
f 19/22/12 13/20/12 15/19/12
f 21/26/7 14/18/7 18/25/7
f 24/27/7 20/23/7 16/21/7
f 14/18/10 16/21/10 15/19/10
f 16/21/9 20/23/9 19/22/9
f 20/23/8 18/25/8 17/24/8
f 18/25/11 14/18/11 13/20/11
f 19/22/12 17/24/12 13/20/12
f 18/25/7 20/23/7 22/28/7
f 20/23/7 25/29/7 22/28/7
f 21/26/7 23/30/7 14/18/7
f 18/25/7 22/28/7 21/26/7
f 16/21/7 14/18/7 23/30/7
f 24/27/7 25/29/7 20/23/7
f 16/21/7 23/30/7 24/27/7
