# Blender v2.79 (sub 0) OBJ File: ''
# www.blender.org
mtllib warning_label.mtl
o Cube_Cube.001
v -0.095660 -0.001264 0.068921
v -0.095660 0.003736 0.068921
v -0.095660 -0.001264 -0.077079
v -0.095660 0.003736 -0.077079
v 0.094340 -0.001264 0.068921
v 0.094340 0.003736 0.068921
v 0.094340 -0.001264 -0.077079
v 0.094340 0.003736 -0.077079
vt 0.001662 -0.000817
vt -0.006141 -0.008134
vt -0.006141 1.005792
vt 0.001662 0.997609
vt 1.007643 1.005792
vt 0.999948 0.997609
vt 1.007643 -0.008134
vt 0.999948 -0.000817
vn -1.0000 0.0000 0.0000
vn 0.0000 0.0000 -1.0000
vn 1.0000 0.0000 0.0000
vn 0.0000 0.0000 1.0000
vn 0.0000 -1.0000 0.0000
vn 0.0000 1.0000 0.0000
usemtl None
s off
f 1/1/1 2/2/1 4/3/1 3/4/1
f 3/4/2 4/3/2 8/5/2 7/6/2
f 7/6/3 8/5/3 6/7/3 5/8/3
f 5/8/4 6/7/4 2/2/4 1/1/4
f 3/4/5 7/6/5 5/8/5 1/1/5
f 8/5/6 4/3/6 2/2/6 6/7/6
