# Blender v2.79 (sub 0) OBJ File: 'microwave.blend'
# www.blender.org
mtllib microwave.mtl
o door_Cube.002
v -0.088357 0.003736 0.050881
v -0.088357 0.003736 -0.074119
v 0.086643 0.003736 0.050881
v 0.086643 0.003736 -0.074119
v -0.194469 -0.004650 0.127538
v -0.194469 0.000350 0.127538
v -0.194469 -0.004650 -0.137462
v -0.194469 0.000350 -0.137462
v 0.205531 -0.004650 0.127538
v 0.205531 0.000350 0.127538
v 0.205531 -0.004650 -0.137462
v 0.205531 0.000350 -0.137462
v -0.088357 0.000350 0.050881
v 0.086643 0.000350 0.050881
v -0.088357 0.000350 -0.074119
v 0.086643 0.000350 0.048775
v 0.086643 0.000350 -0.074119
vt 0.004098 0.995783
vt 0.971196 0.042645
vt 0.971196 0.995783
vt 0.969186 0.060567
vt 0.006122 0.993731
vt 0.969187 0.993731
vt 0.006122 0.044568
vt 0.969187 0.044568
vt 0.004098 0.042645
vt 0.000000 0.000000
vt 0.000000 0.000000
vt 0.000000 0.000000
vt 0.000000 0.000000
vt 0.000000 0.000000
vt 0.000000 0.000000
vt 0.000000 0.000000
vt 0.000000 0.000000
vt 0.000000 0.000000
vt 0.000000 0.000000
vt 0.000000 0.000000
vt 0.000000 0.000000
vt 0.000000 0.000000
vn 0.0000 1.0000 0.0000
vn 1.0000 0.0000 0.0000
vn 0.0000 0.0000 -1.0000
vn -1.0000 0.0000 0.0000
vn 0.0000 0.0000 1.0000
vn 0.0000 -1.0000 0.0000
usemtl Material
s off
f 2/1/1 3/2/1 4/3/1
f 16/4/2 4/3/2 3/2/2
f 15/5/3 4/3/3 17/6/3
f 13/7/4 2/1/4 15/5/4
f 14/8/5 1/9/5 13/7/5
f 2/1/1 1/9/1 3/2/1
f 3/2/2 14/8/2 16/4/2
f 16/4/2 17/6/2 4/3/2
f 15/5/3 2/1/3 4/3/3
f 13/7/4 1/9/4 2/1/4
f 14/8/5 3/2/5 1/9/5
usemtl Material_NONE
f 6/10/4 7/11/4 5/12/4
f 8/13/3 11/14/3 7/11/3
f 12/15/2 9/16/2 11/14/2
f 10/17/5 5/12/5 9/16/5
f 11/14/6 5/12/6 7/11/6
f 12/15/1 8/13/1 17/18/1
f 10/17/1 14/19/1 6/10/1
f 6/10/4 8/13/4 7/11/4
f 8/13/3 12/15/3 11/14/3
f 12/15/2 10/17/2 9/16/2
f 10/17/5 6/10/5 5/12/5
f 11/14/6 9/16/6 5/12/6
f 8/13/1 6/10/1 13/20/1
f 8/13/1 13/20/1 15/21/1
f 16/22/1 10/17/1 12/15/1
f 8/13/1 15/21/1 17/18/1
f 17/18/1 16/22/1 12/15/1
f 10/17/1 16/22/1 14/19/1
f 14/19/1 13/20/1 6/10/1
